<svg xmlns="http://www.w3.org/2000/svg" viewBox="62.43000000000001 46 450.1400146484375 488.23999786376953"> <g transform="rotate(0 300.1302373991179 236.15409611715404)"><svg xmlns="http://www.w3.org/2000/svg" xmlns:xlink="http://www.w3.org/1999/xlink" version="1.1" id="Layer_1" x="179" y="116" viewBox="161.09999084472656 162.39999389648438 273 270.8000183105469" xml:space="preserve" height="240.30819223430805" width="242.26047479823578" preserveAspectRatio="xMinYMin" enable-background="new 0 0 595.3 595.3" style="overflow: visible;"><path id="Layer_x0020_1" class="st0" d="M259,370.1c23.3-0.3,40.5-6.2,51.3-17.5c-7.2-4.2-14.5-8.3-21.7-12.5l2.5,2.1c1.9,1.5,2.4,4.2,1.2,6.3   l-7.7,13.3c-4.2,0.9-8.7,1.6-13.5,2l14.6-25.3l-7.5-4.3l-21.4,12.4l-21.4,12.4v24.7v24.7l21.4,12.4l21.4,12.4l21.4-12.4l21.4-12.4   v-24.7v-3.3c-15.7,4-36.4,7.5-50.9,6.5l-9.4,16.2l-9.3-5.3l7.5-13l0.2,0.1l0,0l0,0l0,0l0.1,0l0,0l0,0l0,0l0,0l0,0l0,0l0,0l0,0l0,0   l0,0l0,0l0,0l0,0l0,0l0,0l0,0l0,0l0,0l0,0l0,0l0,0l0,0l0,0l0,0l0,0l0,0l0,0l0,0l0,0l0,0l0,0l0,0l0,0l0,0l0,0l0,0l0,0l0,0l0,0l0,0   l0,0l0,0l0,0l0,0l0,0l0,0l0,0l0,0l0,0l0,0l0,0l0,0l0,0l0,0l0,0l0,0l0,0l0,0l0,0l0,0l0,0l0,0l0,0l0,0l0,0l0,0l0,0l0,0l0,0l0,0l0,0   l0,0l0,0l0,0l0,0l0,0l0,0l0,0l0,0l0,0l-0.1,0l0,0l0,0l0,0c-4.3-1.7-6.9-4.4-6.7-8.5C252.8,372.8,255.6,370.1,259,370.1L259,370.1z    M225.4,328.7c-9.7,12.7-19.6,35-20.7,56.3l15,14.1l-15.1-8.7l-11.7-6.8l-31.8-18.3v-67.6V230l58.6-33.8l58.6-33.8l58.6,33.8   l58.6,33.8v67.6v67.6l-29.5,17l-11,6.3l-15.1,8.7l14.8-14c-1.8-31.5-7.7-66.4-25.6-89l-28.9,40.5l25.7-44.5l4.8-8.3l6.5-11.2   l6.1,3.5l3.3-5.7c25.2,14.1,39.7,23.8,43.3,29.2c-5.3-14.2-17.7-27.6-37-40.1l3.2-5.6l-19.9-11.5l-3.3,5.6   c-3.6-1.8-7.3-3.6-11.3-5.4l-6.7,10.8l11.4,6l-3,5.2l4.5,2.6l-9.3,16.1c-5.5-5.8-11.6-10.8-18.1-14.9c-2.9,1.7-8.5,6-11.7,7.1   c16.3-16.6,21.4-35.4,14.6-58.6c-19.3,3.6-34.2,19-37.3,38.4c-26.5-2.8-63.4,4.7-76.9,30.7c-1.3,2.4-1.8,5.1-1.3,8.1   c2,12.6,39.5,33.8,54.5,37.9C237.7,331.1,230,330.2,225.4,328.7L225.4,328.7z M423.7,239.2c-1.2,14.9-3.1,11.6,10.4,18   c-14.9-1.2-11.6-3.1-18,10.4c1.2-14.9,3.1-11.6-10.4-18C420.6,250.8,417.3,252.7,423.7,239.2L423.7,239.2z M378.7,184.8   c9.7,11.4,6,10.4,20.1,5.4c-11.4,9.7-10.4,6-5.4,20.1c-9.7-11.4-6-10.4-20.1-5.4C384.7,195.2,383.7,198.9,378.7,184.8L378.7,184.8z    M379.8,297.3c1.5,8,0,6.5,8,8c-8,1.5-6.5,0-8,8c-1.5-8,0-6.5-8-8C379.8,303.8,378.3,305.3,379.8,297.3z M375.3,239   c1.9,10,0,8.2,10.1,10.1c-10,1.9-8.2,0-10.1,10.1c-1.9-10,0-8.2-10.1-10.1C375.3,247.2,373.4,249.1,375.3,239z M241.4,276.2   c0-5.4,4.4-9.9,9.9-9.9c5.4,0,9.9,4.4,9.9,9.9c0,5.4-4.4,9.9-9.9,9.9C245.9,286,241.4,281.6,241.4,276.2z M267.8,386.6L267.8,386.6   L267.8,386.6l-0.1,0l0,0l0,0l0,0l0,0h0l0,0v0l0,0l0,0l0,0l0,0l0,0l0,0v0l0,0v0l0,0h0l0,0h0l-0.1,0h0l0,0v0l0,0h0l-0.1,0h0   c-0.4,0-0.7-0.1-1.1-0.1h0l0,0h0l0,0h0l0,0h0l0,0l0,0v0l0,0h0l0,0l0,0h0l0,0v0l0,0l0,0h0l0,0h0l0,0h0l0,0h0c0.3,0,0.7,0.1,1.1,0.1   h0l0.1,0h0l0,0v0l0,0h0l0.1,0h0l0,0h0l0,0v0l0,0v0l0,0l0,0l0,0l0,0l0,0l0,0v0l0,0h0l0,0l0,0l0,0l0,0L267.8,386.6L267.8,386.6   L267.8,386.6z M265.7,386.3L265.7,386.3L265.7,386.3L265.7,386.3L265.7,386.3L265.7,386.3L265.7,386.3L265.7,386.3L265.7,386.3   L265.7,386.3l-0.1,0v0l0,0v0l0,0v0l0,0v0l0,0v0l0,0v0l0,0v0l0,0v0l-0.1,0v0l0,0v0l-0.3-0.1h0l0,0h0l-0.1,0h0l0,0h0l0,0h0l0,0h0l0,0   h0l0,0h0l0,0h0l0,0h0l0,0h0l0,0h0l0,0l0,0l0,0l0,0l0,0l0,0l0,0l0,0l0,0l0,0h0l0,0h0l0,0h0l0,0h0l0,0h0l0,0h0l0,0h0l0,0h0l0,0h0l0,0   h0l0.1,0h0l0,0h0l0.3,0.1v0l0,0v0l0.1,0v0l0,0v0l0,0v0l0,0v0l0,0v0l0,0v0l0,0v0l0,0v0L265.7,386.3L265.7,386.3L265.7,386.3   L265.7,386.3L265.7,386.3L265.7,386.3L265.7,386.3L265.7,386.3L265.7,386.3L265.7,386.3z M264.7,386.1L264.7,386.1L264.7,386.1   L264.7,386.1l-0.1,0h0l0,0l0,0h0l0,0l0,0l0,0l0,0l0,0l0,0l0,0h0l0,0l0,0h0l0,0h0l0,0l0,0l0,0h0l0,0h0l0,0l0,0l0,0l0,0l0,0l0,0l0,0   l0,0l0,0l0,0l0,0l0,0h0l0,0h0l0,0h0l0,0h0l0,0h0l0,0h0l0,0l0,0h0l0,0h0l0,0l0,0l0,0l0,0h0l0,0h0l0,0h0l0,0h0l0,0h0l0,0h0l0,0h0l0,0   h0l0,0h0l0,0h0l0,0h0l0,0h0l0,0h0l0,0h0l0,0l0,0l0,0l0,0h0l0,0l0,0l0,0l0,0l0,0l0,0h0l0,0l0,0l0,0l0,0h0l0,0h0l0,0h0l0,0h0l0,0h0   l0,0h0l0,0h0l0,0h0l0,0h0l0,0h0l0,0h0l0,0h0l0,0h0l0,0h0l0,0l0,0l0,0l0,0h0l0,0h0l0,0l0,0h0l0,0h0l0,0h0l0,0h0l0,0h0l0,0h0l0,0l0,0   l0,0l0,0l0,0l0,0l0,0l0,0l0,0l0,0l0,0l0,0h0l0,0h0l0,0l0,0l0,0h0l0,0h0l0,0l0,0h0l0,0l0,0l0,0l0,0l0,0l0,0l0,0h0l0,0l0,0h0   L264.7,386.1L264.7,386.1L264.7,386.1L264.7,386.1z M262.6,385.7L262.6,385.7L262.6,385.7L262.6,385.7L262.6,385.7L262.6,385.7   L262.6,385.7L262.6,385.7L262.6,385.7L262.6,385.7l-0.1,0l0,0v0l0,0v0l0,0v0l0,0v0l0,0v0l0,0v0l-0.1,0v0l0,0v0l-0.1,0v0l-0.2-0.1h0   l0,0h0l0,0h0l0,0h0l0,0h0l0,0h0l0,0h0l0,0h0l0,0h0l0,0h0l0,0l0,0h0l0,0h0l0,0l0,0h0l0,0l0,0h0l0,0l0,0h0l0,0l0,0h0l0,0l0,0h0l0,0h0   l0,0l0,0h0l0,0h0l0,0h0l0,0h0l0,0h0l0,0h0l0,0h0l0,0h0l0,0h0l0,0h0l0.2,0.1v0l0.1,0v0l0,0v0l0.1,0v0l0,0v0l0,0v0l0,0v0l0,0v0l0,0v0   l0,0L262.6,385.7L262.6,385.7L262.6,385.7L262.6,385.7L262.6,385.7L262.6,385.7L262.6,385.7L262.6,385.7L262.6,385.7L262.6,385.7z    M261.7,385.5L261.7,385.5L261.7,385.5L261.7,385.5L261.7,385.5l-0.1,0l0,0l0,0v0l0,0v0l0,0v0l0,0v0l0,0v0l0,0v0l0,0v0l0,0v0l0,0v0   l-0.1,0v0l0,0v0l0,0v0l0,0v0l0,0v0l-0.1,0v0l0,0v0l-0.1,0v0l-0.1,0v0l0,0v0l0,0v0l-0.1,0v0l0,0v0l0,0v0l0,0v0l0,0v0l0,0v0l0,0v0   l0,0v0l0,0v0l0,0v0l0,0v0l0,0v0l0,0v0l0,0v0l0,0l0,0l0,0v0l0,0l0,0v0l0,0l0,0l0,0l0,0v0l0,0v0l0,0v0l0,0l0,0l0,0l0,0l0,0l0,0l0,0   l0,0l0,0l0,0l0,0l0,0l0,0l0,0v0l0,0v0l0,0v0l0,0l0,0l0,0l0,0v0l0,0l0,0v0l0,0l0,0l0,0v0l0,0v0l0,0v0l0,0v0l0,0v0l0,0v0l0,0v0l0,0v0   l0,0v0l0,0v0l0,0v0l0,0v0l0,0v0l0,0v0l0.1,0v0l0,0v0l0,0v0l0.1,0v0l0.1,0v0l0,0v0l0.1,0v0l0,0v0l0,0v0l0,0v0l0,0v0l0.1,0v0l0,0v0   l0,0v0l0,0v0l0,0v0l0,0v0l0,0v0l0,0v0l0,0v0l0,0l0,0L261.7,385.5L261.7,385.5L261.7,385.5L261.7,385.5L261.7,385.5z" style="fill-rule: evenodd; clip-rule: evenodd; fill: #FC7853; fill-opacity: 1;"></path></svg></g> <g transform="rotate(0 287.50000732421876 423.11999893188477)"><svg xmlns="http://www.w3.org/2000/svg" y="382" viewBox="4.900000095367432 4.369999885559082 310.1400146484375 82.23999786376953" x="132.43" height="82.23999786376953" width="310.1400146484375" style="overflow: visible;"><g fill="#220901" fill-opacity="1" style=""><path d="M9.54 69.11L4.90 65.70L4.90 60.19L25.11 60.19Q29.13 60.19 29.13 55.90L29.13 55.90Q29.13 51.44 25.81 50.83L25.81 50.83L16.01 49.26Q4.90 47.33 4.90 36.66L4.90 36.66Q4.90 23.18 18.72 23.18L18.72 23.18L32.63 23.18L37.27 26.60L37.27 32.11L19.16 32.11Q15.05 32.11 15.05 36.39L15.05 36.39Q15.05 40.68 18.55 41.29L18.55 41.29L28.35 42.87Q39.37 44.71 39.37 55.55L39.37 55.55Q39.37 69.11 25.46 69.11L25.46 69.11L9.54 69.11ZM60.98 86.61L50.74 86.61L50.74 23.18L75.94 23.18Q89.67 23.18 89.67 37.01L89.67 37.01L89.67 55.29Q89.67 69.11 75.94 69.11L75.94 69.11L60.98 69.11L60.98 86.61ZM60.98 32.11L60.98 60.19L75.41 60.19Q79.44 60.19 79.44 56.17L79.44 56.17L79.44 36.13Q79.44 32.11 75.41 32.11L75.41 32.11L60.98 32.11ZM101.75 53.89L101.75 53.89L101.75 4.37L111.98 4.37L111.98 54.94Q111.98 60.63 117.76 61.07L117.76 61.07L117.76 69.90Q101.75 69.90 101.75 53.89ZM138.14 15.22L127.38 15.22L127.38 4.81L138.14 4.81L138.14 15.22ZM137.88 69.11L127.64 69.11L127.64 23.18L137.88 23.18L137.88 69.11ZM161.24 69.11L151.00 69.11L151.00 23.18L176.20 23.18Q189.93 23.18 189.93 37.01L189.93 37.01L189.93 69.11L179.70 69.11L179.70 36.13Q179.70 32.11 175.67 32.11L175.67 32.11L161.24 32.11L161.24 69.11ZM202.36 55.29L202.36 55.29L202.36 8.75L212.59 8.75L212.59 23.18L228.25 23.18L228.25 32.11L212.59 32.11L212.59 56.17Q212.59 60.19 216.62 60.19L216.62 60.19L229.13 60.19L229.13 65.70L224.49 69.11L216.18 69.11Q202.36 69.11 202.36 55.29ZM238.14 55.29L238.14 55.29L238.14 37.01Q238.14 23.18 251.96 23.18L251.96 23.18L263.34 23.18Q277.07 23.18 277.07 37.01L277.07 37.01L277.07 49.96L248.38 49.96L248.38 56.17Q248.38 60.19 252.40 60.19L252.40 60.19L275.32 60.19L275.32 65.70L270.68 69.11L251.96 69.11Q238.14 69.11 238.14 55.29ZM248.38 36.13L248.38 41.99L266.84 41.99L266.84 36.13Q266.84 32.11 262.81 32.11L262.81 32.11L252.40 32.11Q248.38 32.11 248.38 36.13L248.38 36.13ZM299.38 69.11L289.14 69.11L289.14 28.87Q292.29 23.18 301.22 23.18L301.22 23.18L310.40 23.18L315.04 26.60L315.04 32.11L303.58 32.11Q300.60 32.11 299.38 33.59L299.38 33.59L299.38 69.11Z" transform="translate(0, 0)"></path></g></svg></g></svg>